<svg version="1.1" id="Layer_1" xmlns="http://www.w3.org/2000/svg" xmlns:xlink="http://www.w3.org/1999/xlink" x="0px" y="0px"
	 width="100%" viewBox="0 0 416 432" enable-background="new 0 0 416 432" xml:space="preserve">
<path fill="#000000" opacity="1.000000" stroke="none" 
	d="
M216.467941,433.000000 
	C211.755157,427.505798 205.775131,429.099457 200.271393,429.380005 
	C192.843140,429.758667 192.589157,429.647430 192.493668,422.187225 
	C192.448929,418.691010 190.186142,417.189667 186.943039,417.091949 
	C183.448181,416.986603 179.943054,417.167389 176.451950,417.010559 
	C173.469025,416.876556 170.964798,415.477478 171.262375,412.186798 
	C171.877045,405.389862 167.460068,403.097839 162.256485,401.601135 
	C159.487518,400.804626 156.809402,400.055237 157.119720,396.665649 
	C157.421753,393.366425 160.121704,392.807404 163.009811,392.537140 
	C172.287949,391.668915 181.551010,390.637909 190.817429,389.646667 
	C199.578598,388.709473 202.852264,384.391571 202.112396,375.539215 
	C201.532608,368.602448 199.537216,363.990143 191.971817,361.008301 
	C171.562469,352.964203 153.048584,341.530273 137.170135,326.072021 
	C121.867966,311.174774 110.490906,294.166687 107.335258,272.600464 
	C104.759163,254.994980 108.845291,238.561020 116.673920,222.850082 
	C124.014397,208.118820 135.212494,196.065475 144.452103,182.653595 
	C147.583359,178.108353 150.608154,173.538147 152.262451,168.216156 
	C154.305237,161.644409 152.734619,155.774506 147.214951,152.469559 
	C141.362427,148.965286 135.279175,147.577835 128.389999,150.961121 
	C114.958763,157.557159 101.436554,164.140747 85.956741,164.609756 
	C82.172249,164.724411 78.676529,163.879135 75.247353,162.628723 
	C71.705124,161.337082 70.217857,158.322556 69.995537,154.791016 
	C69.723076,150.462860 72.183487,147.515503 75.739738,145.598785 
	C86.094551,140.017807 95.375015,133.135361 103.267380,124.339386 
	C107.643219,119.462540 111.524368,114.186104 113.700188,108.130424 
	C124.833275,77.144997 162.552017,66.622330 188.907043,85.004303 
	C199.394562,92.319092 205.999573,102.585518 209.351257,115.367332 
	C215.335083,138.186859 210.347504,159.418701 202.415344,180.637726 
	C198.931946,189.955994 195.588455,199.420074 194.395844,209.422897 
	C194.055420,212.278107 193.210464,215.104294 189.830429,214.818314 
	C186.651108,214.549301 185.869812,211.674042 185.705704,208.842117 
	C185.320038,202.186676 187.482986,196.031082 189.555054,189.880875 
	C194.384613,175.545807 200.280655,161.506958 202.233459,146.357010 
	C204.204742,131.063660 202.145172,116.412888 193.896912,103.103516 
	C184.066513,87.241226 161.339951,81.045441 142.897430,88.985077 
	C133.295258,93.118889 126.762428,100.142860 122.455864,110.334038 
	C127.638428,110.396301 128.333511,113.460922 128.291656,117.112061 
	C128.169601,127.756905 135.477783,134.170822 142.036240,140.968735 
	C142.644363,141.599060 143.864029,141.650970 144.808350,141.943649 
	C160.880173,146.924759 166.495697,159.792923 159.622940,175.295822 
	C154.755463,186.275421 146.501770,194.837494 139.600235,204.373260 
	C129.314148,218.585358 119.676819,233.097244 116.995590,251.046127 
	C113.884819,271.870544 119.361908,290.286957 132.194000,306.681213 
	C150.630829,330.236053 174.903595,345.374969 202.750519,355.303955 
	C208.511307,357.357971 214.246597,359.507812 220.794067,359.819641 
	C220.506165,357.133209 218.583618,356.258789 217.182526,355.012024 
	C215.194260,353.242706 213.076218,351.607666 211.195145,349.733093 
	C209.681351,348.224548 207.908493,346.483429 209.736572,344.129852 
	C211.422424,341.959412 213.778610,341.614105 215.968262,343.136353 
	C229.826813,352.770721 242.839050,362.974518 245.062134,381.568665 
	C246.433914,393.042358 238.847046,404.963165 226.671844,409.408508 
	C221.007324,411.476685 215.157364,412.640778 209.168259,413.257904 
	C206.387741,413.544434 203.637299,414.122955 200.871536,414.569366 
	C200.284698,418.072327 201.317719,419.746613 204.684280,419.657959 
	C211.461472,419.479431 217.581375,421.040863 222.175461,426.483215 
	C223.456055,428.000336 224.839584,427.499512 226.176315,426.625244 
	C232.304459,422.617401 238.389648,418.543274 244.543198,414.575073 
	C249.137985,411.612030 250.152328,407.233459 249.120697,402.366211 
	C244.202972,379.164581 253.450928,361.481628 270.477692,346.749664 
	C270.855316,346.422974 271.245941,346.106873 271.656342,345.823242 
	C274.030762,344.182281 276.600830,342.172089 279.070984,345.280853 
	C281.370575,348.174988 279.548706,350.586243 277.279816,352.599426 
	C274.944397,354.671600 272.546234,356.673065 269.217651,359.526672 
	C309.840149,360.578003 366.169312,302.385315 366.618744,260.520630 
	C360.257507,262.613495 353.780151,263.787659 347.274567,264.790344 
	C344.739777,265.181030 343.241272,266.553009 341.873962,268.669647 
	C332.505798,283.172028 320.465363,295.116455 305.586884,303.784576 
	C290.704193,312.455200 274.517944,317.064514 257.092285,317.466827 
	C234.343460,317.992035 213.594055,312.302521 195.153488,298.884674 
	C185.822159,292.094940 178.711533,283.402283 174.220062,272.664520 
	C165.199753,251.099655 176.523117,227.189514 198.997040,219.565659 
	C213.760132,214.557556 228.362320,215.340240 243.274033,218.633377 
	C265.539429,223.550491 285.164124,234.472519 305.126953,244.752670 
	C314.308167,249.480667 323.774780,253.571594 334.186310,255.058975 
	C338.015350,255.605988 340.210083,254.404572 341.546875,250.925415 
	C342.199524,249.226822 342.951294,247.488907 344.034729,246.052841 
	C345.389679,244.256790 347.301300,243.015793 349.683746,244.159042 
	C351.994202,245.267731 352.456238,247.332809 351.910919,249.668579 
	C351.576843,251.099457 351.124908,252.502823 350.587585,254.409225 
	C356.247742,254.926666 360.860870,253.104980 365.449249,250.786072 
	C368.988647,248.997284 372.424957,244.406876 376.596588,247.326233 
	C381.250641,250.583206 378.134949,255.681366 377.190308,259.840637 
	C371.472656,285.016083 361.604828,308.265320 344.633728,328.085236 
	C324.270935,351.866180 298.398041,365.713837 267.511353,369.933624 
	C261.827454,370.710144 259.576355,373.830872 258.507568,378.285706 
	C256.829498,385.280090 256.381653,392.484253 257.784210,399.610413 
	C259.921082,410.467346 256.078674,418.388763 246.707718,424.032349 
	C242.449310,426.596924 238.466675,429.619385 234.179474,432.717041 
	C228.311966,433.000000 222.623917,433.000000 216.467941,433.000000 
M298.320862,251.245041 
	C283.322876,243.299759 268.372162,235.235733 252.033218,230.265884 
	C237.884338,225.962204 223.505249,223.713394 208.734695,226.310287 
	C199.590088,227.918030 191.492996,231.768036 186.114304,239.570129 
	C176.827637,253.040970 179.235062,266.504242 188.956879,279.827820 
	C199.288803,293.987549 214.127304,301.473969 230.979233,305.674927 
	C270.982300,315.647186 307.752991,299.380920 331.815247,268.125488 
	C333.512054,265.921478 333.926941,263.920105 330.119324,263.273956 
	C318.999725,261.386932 308.807312,256.950775 298.320862,251.245041 
M211.524750,367.952911 
	C209.928345,369.637604 210.085861,369.613892 210.755630,374.065094 
	C212.522720,385.808990 207.059906,397.608429 193.048508,398.356110 
	C188.011719,398.624847 182.998337,399.332031 177.975861,399.838989 
	C178.859177,405.507629 180.764145,408.333130 186.916061,406.863007 
	C193.014526,405.405579 199.439499,405.375916 205.669983,404.394409 
	C214.155746,403.057587 222.935074,402.700317 230.197128,397.035675 
	C236.134445,392.404388 238.009476,378.778290 233.285416,372.959625 
	C231.409195,370.648651 228.866806,369.764221 226.146454,370.532166 
	C223.161713,371.374695 224.351364,374.146179 224.489441,376.084167 
	C224.902374,381.880219 225.688156,387.648804 226.166641,393.441498 
	C226.383972,396.072571 225.342087,398.116516 222.318542,398.152527 
	C219.615021,398.184723 218.035141,396.831085 217.696350,393.993774 
	C216.850586,386.910217 215.172058,379.906067 215.616302,372.704102 
	C215.777054,370.097961 214.712738,368.584198 211.524750,367.952911 
M122.042961,131.212753 
	C121.067345,128.273209 120.091728,125.333664 118.586494,120.798378 
	C107.876007,134.378448 96.375893,145.278030 82.246056,153.397110 
	C86.902008,155.781677 91.272263,155.171494 95.560974,154.219574 
	C104.391800,152.259506 112.294395,147.833801 120.594200,144.466827 
	C127.352379,141.725250 127.314796,141.645248 123.863289,135.061951 
	C123.323280,134.031952 122.841644,132.971344 122.042961,131.212753 
z"/>
<path fill="#000000" opacity="1.000000" stroke="none" 
	d="
M417.000000,274.531342 
	C413.364990,284.105316 410.701233,293.554077 406.596283,302.511383 
	C389.299347,340.254700 362.223694,369.271912 327.881653,392.025055 
	C314.748474,400.726349 300.445709,406.957184 286.066376,413.112549 
	C282.698242,414.554382 279.643097,414.601746 278.334473,410.609558 
	C277.092896,406.821869 279.900421,405.119568 282.869324,404.083099 
	C306.777557,395.736298 327.934296,382.566956 347.003571,366.217346 
	C360.924988,354.281403 373.058746,340.503326 383.171417,325.089081 
	C393.173859,309.842743 401.272797,293.598663 406.538788,276.169830 
	C419.161255,234.392990 418.564026,192.528854 403.715576,151.557816 
	C389.014252,110.992783 363.536774,78.294106 327.404327,54.149643 
	C304.804993,39.048283 280.282654,28.619576 253.568436,23.930950 
	C218.092636,17.704571 183.276321,20.700397 149.419754,33.361301 
	C124.143929,42.813381 101.928215,57.235638 82.417618,75.680260 
	C69.335091,88.048027 58.525475,102.306892 49.054951,117.741341 
	C36.502434,138.198639 28.514120,160.234375 23.931576,183.578293 
	C20.578119,200.661087 20.430868,218.013184 21.668953,235.324356 
	C24.003227,267.962677 35.628155,297.541870 52.983170,324.845123 
	C64.379967,342.774811 79.122681,357.914978 95.585365,371.456573 
	C109.330246,382.762634 124.590042,391.417023 140.415649,399.249512 
	C143.806366,400.927704 145.463333,403.649445 143.746414,406.930145 
	C142.060715,410.151154 139.087524,408.285980 136.702087,407.230255 
	C104.079384,392.792145 76.930794,371.271576 54.866577,343.359558 
	C35.778194,319.212067 23.021921,291.918762 16.186916,261.955719 
	C9.574016,232.966339 9.899684,203.938492 16.260830,174.860291 
	C25.434641,132.924774 45.845867,97.502365 76.870979,67.999413 
	C94.170479,51.548672 113.582253,38.282520 135.454422,28.711100 
	C157.446762,19.087091 180.503372,13.788540 204.404007,11.691558 
	C230.376938,9.412760 255.731888,13.010388 280.248505,20.913580 
	C308.040649,29.872663 333.338074,43.839153 355.225494,63.574242 
	C369.162048,76.140312 381.601868,90.014793 391.702545,105.778061 
	C401.603302,121.229317 409.673431,137.675400 415.189819,155.272156 
	C415.534882,156.372864 416.082153,157.410156 416.767700,158.738480 
	C417.000000,197.354233 417.000000,235.708450 417.000000,274.531342 
z"/>
<path fill="#000000" opacity="1.000000" stroke="none" 
	d="
M156.422241,102.128021 
	C160.532028,104.351250 160.967438,107.713409 159.945068,111.293793 
	C159.193588,113.925537 157.022598,115.277122 154.240692,115.217987 
	C151.148560,115.152275 148.871155,113.623848 147.604263,110.810387 
	C145.280441,105.649796 149.240280,101.525841 156.422241,102.128021 
z"/>
</svg>